<svg xmlns="http://www.w3.org/2000/svg" viewBox="0 0 50 20"><path fill="#444" d="M40 10.8c0-.5-.4-.8-.8-.8h-5.9c-.5 0-.8.4-.8.8 0 .2.1.4.3.6l1.9 1.9-4.4 4.4c-.1.1-.1.2-.1.3 0 .1.1.2.1.3l1.5 1.5c.1.1.2.1.3.1s.2-.1.3-.1l4.4-4.4 1.9 1.9c.2.2.4.3.6.3.5 0 .8-.4.8-.8l-.1-6zm10-8.9c0-.1-.1-.2-.1-.3L48.4.1c-.1 0-.2-.1-.3-.1s-.2.1-.3.1l-4.4 4.4-1.9-1.9c-.2-.2-.4-.3-.6-.3-.5 0-.8.4-.8.8V9c0 .5.4.8.8.8h5.9c.5 0 .8-.4.8-.8 0-.2-.1-.4-.3-.6l-1.9-1.9 4.4-4.4c.1.1.2 0 .2-.2zM16.7 5.4l1.9 1.9c.2.2.4.2.6.2.1 0 .2 0 .3-.1.3-.1.5-.4.5-.7V.8c0-.4-.4-.8-.8-.8h-5.8c-.3 0-.6.2-.8.5-.1.3-.1.7.2.9l1.9 1.9L10 7.9 5.4 3.3l1.9-1.9c.2-.2.3-.6.2-.9C7.3.2 7 0 6.7 0H.8C.4 0 0 .4 0 .8v5.8c0 .4.2.7.5.8.1 0 .2.1.3.1.2 0 .4-.1.6-.2l1.9-1.9L7.9 10l-4.6 4.6-1.9-1.9c-.2-.2-.6-.3-.9-.2-.3.2-.5.5-.5.8v5.8c0 .5.4.9.8.9h5.8c.3 0 .6-.2.8-.5.1-.3.1-.7-.2-.9l-1.9-1.9 4.6-4.6 4.6 4.6-1.9 1.9c-.2.2-.3.6-.2.9.1.3.4.5.8.5H19c.5 0 .8-.4.8-.8v-5.8c0-.3-.2-.6-.5-.8-.3-.1-.7-.1-.9.2l-1.9 1.9-4.4-4.7 4.6-4.6z"/></svg>

