<svg width="16" height="16" xmlns="http://www.w3.org/2000/svg"><g fill="none" fill-rule="evenodd"><path fill="none" d="M0 0h16v16H0z"/><path d="M12.5 11C10.693 11 9.26 9.951 8 8.845 6.74 9.951 5.307 11 3.5 11 1.57 11 0 9.43 0 7.5S1.57 4 3.5 4C5.307 4 6.74 5.049 8 6.155 9.26 5.049 10.693 4 12.5 4 14.43 4 16 5.57 16 7.5S14.43 11 12.5 11zM9.501 7.5c.973.838 1.936 1.5 2.999 1.5.827 0 1.5-.673 1.5-1.5S13.327 6 12.5 6c-1.063 0-2.026.662-2.999 1.5zM3.5 6C2.673 6 2 6.673 2 7.5S2.673 9 3.5 9c1.063 0 2.026-.662 2.999-1.5C5.526 6.662 4.563 6 3.5 6z" fill="#111" fill-rule="nonzero"/></g></svg>
