<svg width="16" height="16" xmlns="http://www.w3.org/2000/svg"><g fill="none" fill-rule="evenodd"><path d="M8.336 2c1.648 0 2.768.496 3.728 1.392l-1.12 1.296c-.784-.64-1.552-.928-2.448-.928-.96 0-1.616.416-1.616 1.2 0 .768.416 1.088 2.224 1.648 2 .64 3.28 1.472 3.28 3.52 0 2.032-1.6 3.456-4.288 3.456-1.84 0-3.184-.656-4.096-1.552l1.216-1.328c.8.688 1.68 1.104 2.816 1.104s1.904-.544 1.904-1.52c0-.88-.432-1.264-2.112-1.776-2.4-.752-3.36-1.712-3.36-3.392C4.464 3.232 6.096 2 8.336 2z" fill="#111"/><path fill="none" d="M0 0h16v16H0z"/></g></svg>
